<mxfile host="drawio-plugin" modified="2024-06-18T17:24:08.418Z" agent="5.0 (X11; Linux x86_64) AppleWebKit/537.36 (KHTML, like Gecko) Chrome/111.0.0.0 Safari/537.36" etag="SMDwmcKqIlU9IEkPDAP2" version="20.5.3" type="embed"><diagram id="ERxrzM34JgP0kjhDalQf" name="Page-1"><mxGraphModel dx="1240" dy="918" grid="1" gridSize="10" guides="1" tooltips="1" connect="1" arrows="1" fold="1" page="0" pageScale="1" pageWidth="827" pageHeight="1169" math="0" shadow="0"><root><mxCell id="0"/><mxCell id="1" parent="0"/><mxCell id="287" value="&lt;b&gt;alt&lt;/b&gt;" style="shape=umlFrame;whiteSpace=wrap;html=1;labelBackgroundColor=none;strokeWidth=2;fillColor=none;width=100;height=20;" parent="1" vertex="1"><mxGeometry x="-180" y="360" width="430" height="250" as="geometry"/></mxCell><mxCell id="224" value="Persona&lt;br&gt;" style="shape=umlActor;verticalLabelPosition=bottom;verticalAlign=top;html=1;outlineConnect=0;" parent="1" vertex="1"><mxGeometry x="-80" y="50" width="30" height="60" as="geometry"/></mxCell><mxCell id="225" value="" style="endArrow=none;html=1;rounded=0;strokeWidth=2;" parent="1" source="240" edge="1"><mxGeometry width="50" height="50" relative="1" as="geometry"><mxPoint x="-65.5" y="500" as="sourcePoint"/><mxPoint x="-65.5" y="140" as="targetPoint"/></mxGeometry></mxCell><mxCell id="228" value="" style="swimlane;startSize=0;strokeWidth=2;" parent="1" vertex="1"><mxGeometry x="30" y="90" width="100" height="60" as="geometry"/></mxCell><mxCell id="230" value="LoginPage" style="text;html=1;align=center;verticalAlign=middle;resizable=0;points=[];autosize=1;strokeColor=none;fillColor=none;" parent="228" vertex="1"><mxGeometry x="10" y="15" width="80" height="30" as="geometry"/></mxCell><mxCell id="231" value="" style="swimlane;startSize=0;strokeWidth=2;" parent="1" vertex="1"><mxGeometry x="180" y="90" width="100" height="60" as="geometry"/></mxCell><mxCell id="232" value="UserModel" style="text;html=1;align=center;verticalAlign=middle;resizable=0;points=[];autosize=1;strokeColor=none;fillColor=none;" parent="231" vertex="1"><mxGeometry x="10" y="15" width="80" height="30" as="geometry"/></mxCell><mxCell id="234" value="" style="endArrow=classic;html=1;rounded=0;strokeWidth=2;entryX=0;entryY=0;entryDx=0;entryDy=0;" parent="1" target="266" edge="1"><mxGeometry width="50" height="50" relative="1" as="geometry"><mxPoint x="-60" y="190" as="sourcePoint"/><mxPoint x="80" y="190" as="targetPoint"/></mxGeometry></mxCell><mxCell id="235" value="" style="endArrow=classic;html=1;rounded=0;strokeWidth=2;entryX=0;entryY=0.5;entryDx=0;entryDy=0;" parent="1" target="266" edge="1"><mxGeometry width="50" height="50" relative="1" as="geometry"><mxPoint x="-60" y="220" as="sourcePoint"/><mxPoint x="80" y="220" as="targetPoint"/></mxGeometry></mxCell><mxCell id="237" value="Email" style="text;html=1;strokeColor=none;fillColor=none;align=center;verticalAlign=middle;whiteSpace=wrap;rounded=0;labelBackgroundColor=none;strokeWidth=2;" parent="1" vertex="1"><mxGeometry x="-30" y="190" width="60" height="30" as="geometry"/></mxCell><mxCell id="238" value="Password" style="text;html=1;strokeColor=none;fillColor=none;align=center;verticalAlign=middle;whiteSpace=wrap;rounded=0;labelBackgroundColor=none;strokeWidth=2;" parent="1" vertex="1"><mxGeometry x="-30" y="220" width="60" height="30" as="geometry"/></mxCell><mxCell id="240" value="" style="swimlane;startSize=0;labelBackgroundColor=none;strokeWidth=2;" parent="1" vertex="1"><mxGeometry x="-70" y="190" width="10" height="50" as="geometry"/></mxCell><mxCell id="246" value="" style="endArrow=classic;html=1;rounded=0;strokeWidth=2;exitX=1.095;exitY=0.883;exitDx=0;exitDy=0;exitPerimeter=0;entryX=0;entryY=0;entryDx=0;entryDy=0;" parent="1" source="266" target="268" edge="1"><mxGeometry width="50" height="50" relative="1" as="geometry"><mxPoint x="80" y="240" as="sourcePoint"/><mxPoint x="220" y="240" as="targetPoint"/></mxGeometry></mxCell><mxCell id="247" value="login()" style="text;html=1;strokeColor=none;fillColor=none;align=center;verticalAlign=middle;whiteSpace=wrap;rounded=0;labelBackgroundColor=none;strokeWidth=2;" parent="1" vertex="1"><mxGeometry x="120" y="240" width="60" height="30" as="geometry"/></mxCell><mxCell id="248" value="" style="endArrow=classic;html=1;rounded=0;strokeWidth=2;exitX=1.039;exitY=0.101;exitDx=0;exitDy=0;exitPerimeter=0;entryX=1;entryY=0;entryDx=0;entryDy=0;" parent="1" source="268" edge="1" target="288"><mxGeometry width="50" height="50" relative="1" as="geometry"><mxPoint x="240" y="270" as="sourcePoint"/><mxPoint x="240" y="340" as="targetPoint"/><Array as="points"><mxPoint x="270" y="270"/><mxPoint x="270" y="340"/></Array></mxGeometry></mxCell><mxCell id="249" value="validation()" style="text;html=1;strokeColor=none;fillColor=none;align=center;verticalAlign=middle;whiteSpace=wrap;rounded=0;labelBackgroundColor=none;strokeWidth=2;" parent="1" vertex="1"><mxGeometry x="280" y="280" width="60" height="30" as="geometry"/></mxCell><mxCell id="257" value="" style="endArrow=classic;html=1;rounded=0;dashed=1;strokeWidth=2;exitX=0;exitY=0.5;exitDx=0;exitDy=0;entryX=1.141;entryY=0.177;entryDx=0;entryDy=0;entryPerimeter=0;" parent="1" source="268" target="279" edge="1"><mxGeometry width="50" height="50" relative="1" as="geometry"><mxPoint x="230" y="390" as="sourcePoint"/><mxPoint x="80" y="390" as="targetPoint"/></mxGeometry></mxCell><mxCell id="258" value="accepted" style="text;html=1;strokeColor=none;fillColor=none;align=center;verticalAlign=middle;whiteSpace=wrap;rounded=0;labelBackgroundColor=none;strokeWidth=2;" parent="1" vertex="1"><mxGeometry x="120" y="360" width="60" height="30" as="geometry"/></mxCell><mxCell id="260" value="" style="endArrow=classic;html=1;rounded=0;strokeWidth=2;" parent="1" edge="1"><mxGeometry width="50" height="50" relative="1" as="geometry"><mxPoint x="85" y="400" as="sourcePoint"/><mxPoint x="85" y="470" as="targetPoint"/><Array as="points"><mxPoint x="125" y="400"/><mxPoint x="125" y="470"/></Array></mxGeometry></mxCell><mxCell id="261" value="redirect" style="text;html=1;strokeColor=none;fillColor=none;align=center;verticalAlign=middle;whiteSpace=wrap;rounded=0;labelBackgroundColor=none;strokeWidth=2;" parent="1" vertex="1"><mxGeometry x="120" y="410" width="60" height="30" as="geometry"/></mxCell><mxCell id="262" value="" style="endArrow=classic;html=1;rounded=0;dashed=1;strokeWidth=2;exitX=-0.127;exitY=0.935;exitDx=0;exitDy=0;exitPerimeter=0;entryX=1.111;entryY=0.428;entryDx=0;entryDy=0;entryPerimeter=0;" parent="1" source="268" target="281" edge="1"><mxGeometry width="50" height="50" relative="1" as="geometry"><mxPoint x="230" y="520" as="sourcePoint"/><mxPoint x="80" y="520" as="targetPoint"/></mxGeometry></mxCell><mxCell id="263" value="rejected" style="text;html=1;strokeColor=none;fillColor=none;align=center;verticalAlign=middle;whiteSpace=wrap;rounded=0;labelBackgroundColor=none;strokeWidth=2;" parent="1" vertex="1"><mxGeometry x="120" y="490" width="60" height="30" as="geometry"/></mxCell><mxCell id="264" value="" style="endArrow=classic;html=1;rounded=0;dashed=1;strokeWidth=2;" parent="1" edge="1"><mxGeometry width="50" height="50" relative="1" as="geometry"><mxPoint x="80" y="550" as="sourcePoint"/><mxPoint x="-60" y="550" as="targetPoint"/></mxGeometry></mxCell><mxCell id="265" value="retry" style="text;html=1;strokeColor=none;fillColor=none;align=center;verticalAlign=middle;whiteSpace=wrap;rounded=0;labelBackgroundColor=none;strokeWidth=2;" parent="1" vertex="1"><mxGeometry x="-30" y="525" width="60" height="30" as="geometry"/></mxCell><mxCell id="266" value="" style="swimlane;startSize=0;labelBackgroundColor=none;strokeWidth=2;" parent="1" vertex="1"><mxGeometry x="75" y="190" width="10" height="60" as="geometry"/></mxCell><mxCell id="267" value="" style="endArrow=none;html=1;rounded=0;strokeWidth=2;exitX=0.5;exitY=0;exitDx=0;exitDy=0;dashed=1;" parent="1" edge="1" source="266"><mxGeometry width="50" height="50" relative="1" as="geometry"><mxPoint x="80" y="170" as="sourcePoint"/><mxPoint x="79.75999999999999" y="150" as="targetPoint"/></mxGeometry></mxCell><mxCell id="268" value="" style="swimlane;startSize=0;labelBackgroundColor=none;strokeWidth=2;" parent="1" vertex="1"><mxGeometry x="225" y="240" width="10" height="300" as="geometry"/></mxCell><mxCell id="269" value="" style="endArrow=none;html=1;rounded=0;strokeWidth=2;exitX=0.5;exitY=0;exitDx=0;exitDy=0;dashed=1;" parent="1" source="268" edge="1"><mxGeometry width="50" height="50" relative="1" as="geometry"><mxPoint x="229.92076923076928" y="180.00000000000006" as="sourcePoint"/><mxPoint x="229.69" y="150.00000000000006" as="targetPoint"/></mxGeometry></mxCell><mxCell id="271" value="" style="endArrow=none;dashed=1;html=1;rounded=0;entryX=0.5;entryY=1;entryDx=0;entryDy=0;strokeWidth=2;" parent="1" target="266" edge="1"><mxGeometry width="50" height="50" relative="1" as="geometry"><mxPoint x="80" y="350" as="sourcePoint"/><mxPoint x="120" y="290" as="targetPoint"/></mxGeometry></mxCell><mxCell id="272" value="" style="endArrow=none;dashed=1;html=1;rounded=0;entryX=0.5;entryY=1;entryDx=0;entryDy=0;strokeWidth=2;exitX=0.5;exitY=0;exitDx=0;exitDy=0;" parent="1" source="279" edge="1"><mxGeometry width="50" height="50" relative="1" as="geometry"><mxPoint x="80" y="490" as="sourcePoint"/><mxPoint x="79.8" y="350" as="targetPoint"/></mxGeometry></mxCell><mxCell id="273" value="" style="endArrow=none;dashed=1;html=1;rounded=0;entryX=0.5;entryY=1;entryDx=0;entryDy=0;exitX=0.622;exitY=0;exitDx=0;exitDy=0;exitPerimeter=0;strokeWidth=2;startArrow=none;" parent="1" source="281" edge="1"><mxGeometry width="50" height="50" relative="1" as="geometry"><mxPoint x="79.75000000000009" y="590" as="sourcePoint"/><mxPoint x="79.85" y="490" as="targetPoint"/></mxGeometry></mxCell><mxCell id="274" value="" style="endArrow=none;dashed=1;html=1;rounded=0;entryX=0.501;entryY=1.02;entryDx=0;entryDy=0;exitX=0.622;exitY=0;exitDx=0;exitDy=0;exitPerimeter=0;strokeWidth=2;entryPerimeter=0;" parent="1" target="240" edge="1"><mxGeometry width="50" height="50" relative="1" as="geometry"><mxPoint x="-65.4799999999999" y="350" as="sourcePoint"/><mxPoint x="-65.38" y="250" as="targetPoint"/></mxGeometry></mxCell><mxCell id="275" value="" style="endArrow=none;dashed=1;html=1;rounded=0;entryX=0.5;entryY=1;entryDx=0;entryDy=0;strokeWidth=2;" parent="1" edge="1"><mxGeometry width="50" height="50" relative="1" as="geometry"><mxPoint x="-65.28" y="495" as="sourcePoint"/><mxPoint x="-65.48000000000005" y="355" as="targetPoint"/></mxGeometry></mxCell><mxCell id="276" value="" style="endArrow=none;dashed=1;html=1;rounded=0;entryX=0.5;entryY=1;entryDx=0;entryDy=0;exitX=0.5;exitY=0;exitDx=0;exitDy=0;strokeWidth=2;startArrow=none;" parent="1" source="277" edge="1"><mxGeometry width="50" height="50" relative="1" as="geometry"><mxPoint x="-65.47999999999999" y="590" as="sourcePoint"/><mxPoint x="-65.38000000000008" y="490" as="targetPoint"/></mxGeometry></mxCell><mxCell id="277" value="" style="swimlane;startSize=0;labelBackgroundColor=none;strokeWidth=2;" parent="1" vertex="1"><mxGeometry x="-70" y="520" width="10" height="70" as="geometry"/></mxCell><mxCell id="278" value="" style="endArrow=none;dashed=1;html=1;rounded=0;entryX=0.5;entryY=1;entryDx=0;entryDy=0;exitX=0.622;exitY=0;exitDx=0;exitDy=0;exitPerimeter=0;strokeWidth=2;" parent="1" target="277" edge="1"><mxGeometry width="50" height="50" relative="1" as="geometry"><mxPoint x="-65.48000000000002" y="590" as="sourcePoint"/><mxPoint x="-65.38000000000011" y="490" as="targetPoint"/></mxGeometry></mxCell><mxCell id="279" value="" style="swimlane;startSize=0;labelBackgroundColor=none;strokeWidth=2;" parent="1" vertex="1"><mxGeometry x="75" y="370" width="10" height="110" as="geometry"/></mxCell><mxCell id="280" value="" style="endArrow=none;dashed=1;html=1;rounded=0;entryX=0.5;entryY=1;entryDx=0;entryDy=0;strokeWidth=2;" parent="1" edge="1"><mxGeometry width="50" height="50" relative="1" as="geometry"><mxPoint x="80" y="490" as="sourcePoint"/><mxPoint x="79.85999999999996" y="480" as="targetPoint"/></mxGeometry></mxCell><mxCell id="281" value="" style="swimlane;startSize=0;labelBackgroundColor=none;strokeWidth=2;" parent="1" vertex="1"><mxGeometry x="75" y="505" width="10" height="35" as="geometry"/></mxCell><mxCell id="282" value="" style="endArrow=none;dashed=1;html=1;rounded=0;entryX=0.5;entryY=1;entryDx=0;entryDy=0;exitX=0.622;exitY=0;exitDx=0;exitDy=0;exitPerimeter=0;strokeWidth=2;" parent="1" target="281" edge="1"><mxGeometry width="50" height="50" relative="1" as="geometry"><mxPoint x="79.75000000000011" y="590" as="sourcePoint"/><mxPoint x="79.85000000000002" y="490" as="targetPoint"/></mxGeometry></mxCell><mxCell id="283" value="" style="endArrow=none;dashed=1;html=1;rounded=0;entryX=0.5;entryY=1;entryDx=0;entryDy=0;strokeWidth=2;" parent="1" edge="1"><mxGeometry width="50" height="50" relative="1" as="geometry"><mxPoint x="230" y="590" as="sourcePoint"/><mxPoint x="229.92" y="540" as="targetPoint"/></mxGeometry></mxCell><mxCell id="284" value="" style="endArrow=none;dashed=1;html=1;rounded=0;strokeWidth=2;entryX=-0.002;entryY=0.471;entryDx=0;entryDy=0;entryPerimeter=0;exitX=1.001;exitY=0.543;exitDx=0;exitDy=0;exitPerimeter=0;" parent="1" target="287" edge="1"><mxGeometry width="50" height="50" relative="1" as="geometry"><mxPoint x="250.48999999999978" y="480.32000000000016" as="sourcePoint"/><mxPoint x="-160" y="470" as="targetPoint"/><Array as="points"><mxPoint x="-120" y="480"/></Array></mxGeometry></mxCell><mxCell id="285" value="[input valido]" style="text;html=1;strokeColor=none;fillColor=none;align=center;verticalAlign=middle;whiteSpace=wrap;rounded=0;labelBackgroundColor=none;strokeWidth=2;" parent="1" vertex="1"><mxGeometry x="-180" y="410" width="100" height="30" as="geometry"/></mxCell><mxCell id="286" value="[input errato]" style="text;html=1;strokeColor=none;fillColor=none;align=center;verticalAlign=middle;whiteSpace=wrap;rounded=0;labelBackgroundColor=none;strokeWidth=2;" parent="1" vertex="1"><mxGeometry x="-190" y="525" width="130" height="30" as="geometry"/></mxCell><mxCell id="288" value="" style="swimlane;startSize=0;labelBackgroundColor=none;strokeWidth=2;" vertex="1" parent="1"><mxGeometry x="235" y="340" width="10" height="50" as="geometry"/></mxCell></root></mxGraphModel></diagram></mxfile>